<svg xmlns="http://www.w3.org/2000/svg" viewBox="0 0 288 288">
  <switch>
    <g>
      <path d="M280.344 105.134C263.43 45.531 208.467 1.744 143.117 2.401c-14.022.14-28.986 4.344-37.478 14.724-4.433 5.418-5.642 13.618-2.627 20.525.944 2.163 4.68 8.62 13.176 9.851 3.332.483 8.99-.164 14.737.329 10.695.916 18.062 5.747 20.853 14.777 3.175 10.271-3.612 22.003-19.375 27.421-9.848 3.385-23.844 5.899-44.826 16.42-42.486 21.304-58.002 67.854-49.998 103.197 6.964 30.744 28.887 56.628 57.757 67.608 37.56 14.285 87.034 11.346 126.882-15.147 30.007-19.95 44.721-46.276 50.08-58.126 14.778-32.675 17.256-66.385 8.046-98.846zM138.4 226.775c-19.466 5.638-39.816-5.571-45.455-25.037-5.638-19.465 5.57-39.815 25.036-45.453 19.466-5.638 39.816 5.571 45.455 25.036 5.638 19.466-5.57 39.816-25.036 45.454zm47.367-168.108c-7.346 0-13.3-5.955-13.3-13.3s5.954-13.3 13.3-13.3 13.3 5.954 13.3 13.3-5.955 13.3-13.3 13.3zm22.126 27.818c0-9.18 7.443-16.623 16.624-16.623s16.623 7.442 16.623 16.623-7.442 16.624-16.623 16.624-16.624-7.443-16.624-16.624zm20.565 84.628c-11.373 0-20.592-9.219-20.592-20.591 0-11.372 9.22-20.591 20.592-20.591 11.372 0 20.59 9.219 20.59 20.59 0 11.373-9.218 20.592-20.59 20.592z" fill="#00afd7"/>
      <circle cx="143.732" cy="143.884" r="141.866" fill="none"/>
    </g>
  </switch>
</svg>
