<svg
  x="0"
  y="0"
  version="1.1"
  id="aoeu-logo-horizontal"
  xmlns="http://www.w3.org/2000/svg"
  xml:space="preserve"
  viewBox="88.65 98.10 400.70 88.79"
  fill="#00AFD7">
  <switch>
    <g>
      <path class="st0" d="M165.363 130.3c-5.3-18.679-22.526-32.401-43.006-32.195-4.394.044-9.083 1.361-11.745 4.614-1.389 1.698-1.768 4.268-.823 6.432.296.678 1.467 2.702 4.13 3.088 1.044.151 2.817-.052 4.618.103 3.352.287 5.66 1.8 6.535 4.63.995 3.22-1.132 6.896-6.072 8.594-3.086 1.061-7.473 1.849-14.048 5.146-13.315 6.677-18.177 21.265-15.669 32.34 2.182 9.636 9.053 17.747 18.1 21.188 11.771 4.477 27.276 3.556 39.764-4.747 9.404-6.252 14.015-14.502 15.694-18.215 4.632-10.24 5.408-20.805 2.522-30.978zm-44.484 38.121c-6.1 1.767-12.478-1.746-14.245-7.846-1.767-6.1 1.746-12.478 7.846-14.245 6.1-1.767 12.478 1.746 14.245 7.846 1.767 6.1-1.746 12.478-7.846 14.245zm14.844-52.683a4.168 4.168 0 110-8.336 4.168 4.168 0 010 8.336zm6.935 8.718a5.21 5.21 0 1110.419 0 5.21 5.21 0 01-10.42 0zm6.444 26.521a6.453 6.453 0 110-12.906 6.453 6.453 0 010 12.906zM196.386 134.956c0 1.632.907 2.228 2.254 2.228.673 0 1.243-.13 1.942-.466v1.709c-.7.363-1.45.57-2.409.57-2.15 0-3.781-1.062-3.781-3.781v-8.082h-1.865v-1.76h1.865v-4.041h1.994v4.04h4.248v1.761h-4.248v7.822zM208.74 138.764h-1.993v-18.907h1.994v7.847c.88-1.45 2.279-2.616 4.584-2.616 3.238 0 5.128 2.176 5.128 5.362v8.314h-1.994v-7.822c0-2.487-1.347-4.04-3.704-4.04-2.305 0-4.014 1.683-4.014 4.195v7.667zM230.679 137.339c1.839 0 3.134-.751 4.222-1.89l1.243 1.113c-1.347 1.502-2.979 2.512-5.517 2.512-3.678 0-6.682-2.823-6.682-6.993 0-3.884 2.72-6.993 6.423-6.993 3.963 0 6.242 3.16 6.242 7.097 0 .181 0 .389-.026.621h-10.619c.285 2.901 2.357 4.533 4.714 4.533zm3.911-6.009c-.207-2.434-1.606-4.558-4.274-4.558-2.33 0-4.092 1.942-4.35 4.558h8.624zM253.834 127.937l-.595-1.631c1.476-.674 2.926-1.114 4.869-1.114 3.652 0 5.698 1.865 5.698 5.387v8.185h-1.917v-2.02c-.932 1.217-2.486 2.304-4.843 2.304-2.486 0-4.999-1.398-4.999-4.195 0-2.85 2.331-4.351 5.724-4.351 1.71 0 2.927.232 4.118.57v-.467c0-2.408-1.476-3.652-3.988-3.652-1.58 0-2.823.415-4.067.984zm.233 6.838c0 1.71 1.554 2.694 3.367 2.694 2.461 0 4.481-1.502 4.481-3.626v-1.295a13.97 13.97 0 00-3.936-.57c-2.513 0-3.912 1.088-3.912 2.797zM272.12 138.764h-1.994v-13.39h1.995v3.496c.983-2.228 2.926-3.834 5.465-3.73v2.15h-.156c-2.927 0-5.31 2.098-5.31 6.138v5.336zM285.9 134.956c0 1.632.907 2.228 2.254 2.228.673 0 1.243-.13 1.942-.466v1.709c-.7.363-1.45.57-2.409.57-2.15 0-3.781-1.062-3.781-3.781v-8.082h-1.865v-1.76h1.865v-4.041h1.994v4.04h4.248v1.761H285.9v7.822zM312.733 139.074c-4.014 0-6.941-3.16-6.941-6.967s2.953-7.019 6.993-7.019c4.015 0 6.967 3.16 6.967 6.967s-2.979 7.02-7.019 7.02zm0-12.224c-2.9 0-4.895 2.305-4.895 5.205 0 2.901 2.124 5.233 4.947 5.233 2.901 0 4.92-2.306 4.92-5.18 0-2.927-2.149-5.258-4.972-5.258zM332.392 125.425v1.71h-4.222v11.629h-1.994v-11.63h-1.839V125.4h1.839v-1.165c0-2.927 1.476-4.481 4.041-4.481.932 0 1.554.104 2.202.337v1.735c-.726-.207-1.27-.337-1.944-.337-1.553 0-2.33.932-2.33 2.85v1.087h4.247zM353.786 137.339c1.84 0 3.134-.751 4.221-1.89l1.244 1.113c-1.348 1.502-2.979 2.512-5.517 2.512-3.678 0-6.682-2.823-6.682-6.993 0-3.884 2.72-6.993 6.423-6.993 3.963 0 6.243 3.16 6.243 7.097 0 .181 0 .389-.027.621h-10.619c.285 2.901 2.357 4.533 4.714 4.533zm3.911-6.009c-.207-2.434-1.606-4.558-4.273-4.558-2.331 0-4.092 1.942-4.352 4.558h8.625zM376.553 138.764v-2.694c-1.088 1.606-2.668 2.978-5.128 2.978-3.212 0-6.398-2.538-6.398-6.967 0-4.403 3.186-6.993 6.398-6.993 2.486 0 4.092 1.347 5.128 2.85v-8.081h1.994v18.907h-1.994zm-4.766-11.888c-2.59 0-4.713 1.916-4.713 5.18 0 3.185 2.174 5.206 4.713 5.206 2.487 0 4.843-2.072 4.843-5.207 0-3.107-2.356-5.18-4.843-5.18zM394.58 125.373h1.968v13.39h-1.968v-2.33c-.907 1.45-2.28 2.615-4.585 2.615-3.237 0-5.128-2.175-5.128-5.36v-8.315h1.995v7.822c0 2.486 1.346 4.04 3.702 4.04 2.28 0 4.016-1.683 4.016-4.195v-7.667zM409.137 139.074c-3.911 0-6.864-3.185-6.864-6.967 0-3.807 2.953-7.019 6.864-7.019 2.538 0 4.117 1.062 5.36 2.383l-1.32 1.399c-1.062-1.114-2.254-2.02-4.067-2.02-2.719 0-4.792 2.305-4.792 5.205 0 2.927 2.125 5.233 4.922 5.233 1.709 0 3.03-.855 4.093-1.995l1.268 1.192c-1.347 1.502-2.952 2.59-5.464 2.59zM420.74 127.937l-.595-1.631c1.476-.674 2.926-1.114 4.87-1.114 3.651 0 5.697 1.865 5.697 5.387v8.185h-1.917v-2.02c-.931 1.217-2.486 2.304-4.844 2.304-2.485 0-4.998-1.398-4.998-4.195 0-2.85 2.331-4.351 5.724-4.351 1.709 0 2.926.232 4.118.57v-.467c0-2.408-1.476-3.652-3.988-3.652-1.58 0-2.823.415-4.067.984zm.233 6.838c0 1.71 1.554 2.694 3.368 2.694 2.46 0 4.48-1.502 4.48-3.626v-1.295a13.962 13.962 0 00-3.936-.57c-2.513 0-3.912 1.088-3.912 2.797zM440.115 134.956c0 1.632.906 2.228 2.252 2.228.673 0 1.244-.13 1.943-.466v1.709c-.7.363-1.45.57-2.409.57-2.15 0-3.78-1.062-3.78-3.781v-8.082h-1.866v-1.76h1.865v-4.041h1.995v4.04h4.246v1.761h-4.246v7.822zM450.526 122.446v-2.2h2.28v2.2h-2.28zm.13 16.318v-13.39h1.994v13.39h-1.995zM465.471 139.074c-4.015 0-6.94-3.16-6.94-6.967s2.952-7.019 6.992-7.019c4.014 0 6.967 3.16 6.967 6.967s-2.979 7.02-7.019 7.02zm0-12.224c-2.901 0-4.895 2.305-4.895 5.205 0 2.901 2.124 5.233 4.947 5.233 2.9 0 4.92-2.306 4.92-5.18 0-2.927-2.149-5.258-4.972-5.258zM479.639 138.764h-1.994v-13.39h1.994v2.33c.88-1.45 2.279-2.616 4.584-2.616 3.238 0 5.129 2.176 5.129 5.362v8.314h-1.994v-7.822c0-2.487-1.348-4.04-3.705-4.04-2.305 0-4.014 1.683-4.014 4.195v7.667z"></path>
      <g>
        <path class="st0" d="M194.348 160.89v-10.425h2.023v10.297c0 3.868 2.05 6.045 5.482 6.045 3.304 0 5.405-1.998 5.405-5.917v-10.425h2.024v10.271c0 5.226-2.998 7.942-7.48 7.942-4.432 0-7.454-2.716-7.454-7.788zM229.317 150.465h1.896l11.297 14.37v-14.37h1.972v17.93h-1.614l-11.578-14.703v14.704h-1.973v-17.931zM264.98 150.465h2.023v17.93h-2.023v-17.93zM285.96 150.465h2.255l6.379 15.446 6.404-15.446h2.177l-7.71 18.059h-1.794l-7.71-18.06zM321.956 150.465h12.962v1.844H323.98v6.122h9.785v1.844h-9.785v6.276h11.066v1.845h-13.09v-17.931zM354.364 150.465h7.71c2.204 0 3.97.666 5.098 1.793.872.87 1.384 2.126 1.384 3.534v.051c0 2.973-2.05 4.714-4.867 5.226l5.507 7.327h-2.484l-5.2-6.968h-5.123v6.968h-2.025v-17.931zm7.531 9.144c2.69 0 4.611-1.383 4.611-3.688v-.051c0-2.204-1.69-3.536-4.585-3.536h-5.532v7.275h5.506zM386.952 165.783l1.255-1.486c1.87 1.69 3.664 2.536 6.148 2.536 2.408 0 3.996-1.28 3.996-3.048v-.051c0-1.666-.896-2.613-4.662-3.407-4.125-.897-6.02-2.23-6.02-5.175v-.051c0-2.818 2.485-4.893 5.892-4.893 2.613 0 4.483.743 6.301 2.203l-1.178 1.563c-1.665-1.358-3.33-1.947-5.174-1.947-2.332 0-3.817 1.28-3.817 2.895v.05c0 1.691.922 2.639 4.867 3.484 3.996.872 5.84 2.332 5.84 5.072v.052c0 3.073-2.561 5.072-6.122 5.072-2.843 0-5.174-.948-7.326-2.87zM419.95 150.465h2.023v17.93h-2.023v-17.93zM447.13 152.334h-6.045v-1.87H455.2v1.87h-6.044v16.062h-2.024v-16.062zM479.744 161.3l-7.454-10.835h2.459l6.045 8.965 6.098-8.965h2.356l-7.455 10.81v7.12h-2.049V161.3z"></path>
      </g>
    </g>
  </switch>
</svg>
